<?xml version="1.0" standalone="no"?><!DOCTYPE svg PUBLIC "-//W3C//DTD SVG 1.1//EN" "http://www.w3.org/Graphics/SVG/1.1/DTD/svg11.dtd"><svg t="1627389970486" class="icon" viewBox="0 0 1024 1024" version="1.1" xmlns="http://www.w3.org/2000/svg" p-id="1782" xmlns:xlink="http://www.w3.org/1999/xlink" width="200" height="200"><defs><style type="text/css">@font-face { font-family: feedback-iconfont; src: url("//at.alicdn.com/t/font_1031158_1uhr8ri0pk5.eot?#iefix") format("embedded-opentype"), url("//at.alicdn.com/t/font_1031158_1uhr8ri0pk5.woff2") format("woff2"), url("//at.alicdn.com/t/font_1031158_1uhr8ri0pk5.woff") format("woff"), url("//at.alicdn.com/t/font_1031158_1uhr8ri0pk5.ttf") format("truetype"), url("//at.alicdn.com/t/font_1031158_1uhr8ri0pk5.svg#iconfont") format("svg"); }
</style></defs><path d="M512.5 961.2c-60.5 0-119.1-11.9-174.4-35.2-53.4-22.6-101.3-54.9-142.4-96s-73.4-89-96-142.4c-23.4-55.3-35.2-113.9-35.2-174.4s11.9-119.1 35.2-174.4c22.6-53.4 54.9-101.3 96-142.4s89-73.4 142.4-96C393.4 77 452 65.2 512.5 65.2s119.1 11.9 174.4 35.2c53.4 22.6 101.3 54.9 142.4 96s73.4 89 96 142.4c23.4 55.3 35.2 113.9 35.2 174.4s-11.9 119.1-35.2 174.4c-22.6 53.4-54.9 101.3-96 142.4-41.1 41.1-89 73.4-142.4 96-55.2 23.4-113.9 35.2-174.4 35.2z m0-814.3c-202 0-366.3 164.3-366.3 366.3s164.3 366.3 366.3 366.3 366.3-164.3 366.3-366.3-164.3-366.3-366.3-366.3z" p-id="1783" fill="#bfbfbf"></path><path d="M662.6 470H553.2V267.7c0-22.4-18.3-40.7-40.7-40.7-22.4 0-40.7 18.3-40.7 40.7v243c0 22.4 18.3 40.7 40.7 40.7h150.1c22.4 0 40.7-18.3 40.7-40.7 0-22.4-18.3-40.7-40.7-40.7z" p-id="1784" fill="#bfbfbf"></path></svg>